# xmcd CD database file
#
# Track frame offsets:
#	150
#	11536
#	25603
#	37369
#	52096
#	68597
#	81264
#	101178
#	114702
#	126311
#	135670
#	150454
#	163000
#	187362
#	203453
#	223670
#	238226
#	256903
#	271192
#
# Disc length: 3906 seconds
#
# Revision: 1
# Processed by: cddbd v1.4PL0 Copyright (c) Steve Scherf et al.
# Submitted via: CDex 1.40Beta8
#
DISCID=170f4013
DTITLE=Various Artist - Chicago Blues Masters, Vol3, Disc 1
DYEAR=1900
DGENRE=
TTITLE0=Everything Gonna Be Alright
TTITLE1=Hold That Bus, Conductor
TTITLE2=Strollin' the Strip
TTITLE3=Respect Me Baby
TTITLE4=I Will Always Love You
TTITLE5=Three Time Seven
TTITLE6=Farther on up the Road
TTITLE7=A Hard Road to Travel
TTITLE8=Save Your Money, Baby
TTITLE9=Too Hot to Hold
TTITLE10=Long Distance Call
TTITLE11=Don't Answer the Door
TTITLE12=Love Me Baby
TTITLE13=Chains of Love
TTITLE14=The Sky Is Falling
TTITLE15=Long Distance Operator
TTITLE16=I'm a Free Man
TTITLE17=Can't Live Without Love
TTITLE18=Kiddy Boy
EXTD=
EXTT0=
EXTT1=
EXTT2=
EXTT3=
EXTT4=
EXTT5=
EXTT6=
EXTT7=
EXTT8=
EXTT9=
EXTT10=
EXTT11=
EXTT12=
EXTT13=
EXTT14=
EXTT15=
EXTT16=
EXTT17=
EXTT18=
PLAYORDER=
